<?xml version="1.0" standalone="no"?>
<!DOCTYPE svg PUBLIC "-//W3C//DTD SVG 20010904//EN"
 "http://www.w3.org/TR/2001/REC-SVG-20010904/DTD/svg10.dtd">
<svg version="1.0" xmlns="http://www.w3.org/2000/svg"
 width="359.000000pt" height="199.000000pt" viewBox="0 0 359.000000 199.000000"
 preserveAspectRatio="xMidYMid meet">

<g transform="translate(0.000000,199.000000) scale(0.100000,-0.100000)"
fill="#000000" stroke="none">
<path d="M2965 1933 c1 -16 6 -54 10 -86 8 -65 -8 -258 -31 -357 -11 -49 -14
-117 -12 -279 l3 -214 40 39 c64 61 97 113 125 192 31 87 32 87 88 -53 74
-187 103 -294 127 -470 35 -253 -30 -432 -190 -527 -49 -29 -34 -30 34 -2 56
23 137 81 174 125 44 51 103 167 121 239 24 96 28 243 12 416 -14 158 -11 223
13 247 6 6 11 17 11 24 0 24 -56 14 -98 -17 -67 -49 -68 -47 -75 103 -5 130
-11 159 -62 295 -15 42 -105 184 -142 227 -23 25 -138 125 -145 125 -2 0 -4
-12 -3 -27z"/>
<path d="M1134 1868 c-3 -4 -1 -16 5 -26 6 -11 10 -242 10 -597 1 -319 3 -600
6 -625 7 -54 -10 -445 -20 -477 -7 -21 -5 -22 46 -21 30 0 72 -2 94 -6 51 -8
71 3 56 33 -18 32 -11 965 7 983 23 22 45 -19 65 -118 10 -49 23 -102 28 -119
16 -44 44 -140 64 -215 9 -36 30 -108 45 -160 16 -52 36 -129 45 -170 24 -106
46 -181 62 -207 12 -20 22 -23 73 -23 100 0 92 -75 92 867 0 650 3 824 13 850
13 30 12 31 -13 35 -15 2 -64 2 -109 0 -81 -4 -82 -4 -68 -26 20 -31 16 -816
-4 -840 -8 -9 -17 -13 -21 -9 -9 10 -37 98 -61 188 -10 39 -27 102 -38 140
-10 39 -29 108 -40 155 -35 140 -38 151 -67 255 -15 55 -34 108 -42 117 -11
13 -35 17 -119 20 -58 2 -107 0 -109 -4z m176 -159 c0 -6 7 -9 15 -5 9 3 15 0
15 -9 0 -8 7 -15 16 -15 12 0 15 -6 10 -25 -4 -14 -2 -34 3 -43 14 -26 23
-110 12 -116 -5 -3 -2 -25 6 -48 8 -23 12 -52 9 -64 -4 -14 -1 -24 10 -28 11
-4 14 -14 9 -34 -3 -17 0 -40 9 -56 23 -44 5 -63 -68 -71 -52 -6 -62 -5 -71
10 -5 10 -20 27 -32 38 -17 16 -20 24 -12 39 5 10 7 33 4 51 -8 43 -14 124
-17 260 -2 87 0 110 12 117 21 13 70 12 70 -1z m302 -804 c3 -22 -1 -25 -32
-25 -24 0 -26 17 -3 42 18 20 31 14 35 -17z m83 -15 c3 -5 1 -10 -4 -10 -6 0
-11 5 -11 10 0 6 2 10 4 10 3 0 8 -4 11 -10z m-115 -40 c0 -5 -5 -10 -11 -10
-5 0 -7 5 -4 10 3 6 8 10 11 10 2 0 4 -4 4 -10z m134 -62 c-7 -41 -13 -54 -29
-56 -33 -6 -45 -22 -45 -58 0 -24 5 -34 15 -34 8 0 15 9 15 20 0 11 4 20 9 20
5 0 7 9 4 20 -4 14 0 20 10 20 21 0 33 -20 18 -29 -7 -4 -9 -15 -5 -25 4 -10
2 -21 -5 -26 -10 -5 -9 -11 3 -23 20 -20 20 -56 0 -85 -9 -13 -14 -31 -11 -41
3 -14 -1 -16 -24 -13 -27 4 -29 8 -29 46 0 57 -10 86 -27 86 -9 0 -13 6 -10
15 4 8 2 17 -4 21 -6 3 -8 22 -4 44 6 33 4 38 -17 43 -18 5 -20 9 -10 19 6 6
12 20 12 30 0 10 7 18 15 18 8 0 15 -7 15 -15 0 -8 7 -15 15 -15 7 0 18 -8 24
-17 9 -16 10 -16 16 -2 3 8 1 28 -5 44 -7 19 -8 31 0 39 5 5 10 7 10 2 0 -4 7
0 16 9 27 27 38 4 28 -57z"/>
<path d="M1365 1250 c-3 -5 -1 -10 4 -10 6 0 11 5 11 10 0 6 -2 10 -4 10 -3 0
-8 -4 -11 -10z"/>
<path d="M2588 1873 c-31 -5 -32 -6 -17 -34 6 -13 11 -114 11 -272 1 -277 -6
-333 -45 -341 -53 -11 -141 -14 -162 -6 -38 14 -46 64 -50 288 -3 190 1 260
20 335 l7 27 -125 0 -125 0 12 -37 c11 -32 12 -177 5 -373 0 -8 0 -210 1 -449
1 -298 5 -430 12 -423 6 6 17 8 24 5 10 -4 14 4 14 25 0 17 5 34 10 37 14 9
12 46 -5 95 -13 38 -13 46 0 73 19 38 19 53 0 61 -8 3 -15 12 -15 21 0 9 7 18
15 21 19 8 20 24 1 24 -9 0 -12 7 -9 20 3 11 10 20 15 20 5 0 6 6 1 13 -15 24
-14 210 2 250 9 21 13 42 10 47 -9 14 18 50 37 50 20 0 23 -11 8 -26 -15 -15
-3 -39 24 -52 13 -6 30 -24 37 -41 8 -17 19 -31 26 -31 27 0 13 -57 -24 -98
-7 -7 -13 -33 -13 -57 0 -24 -5 -47 -10 -50 -6 -4 -8 -15 -5 -25 3 -10 2 -21
-3 -24 -10 -6 -4 -106 8 -121 11 -14 10 -125 -1 -125 -5 0 -9 -9 -9 -19 0 -11
-6 -22 -12 -24 -8 -3 -6 -6 5 -6 9 -1 17 -8 17 -17 0 -8 -5 -12 -11 -8 -6 3
-10 -1 -9 -12 1 -11 1 -21 1 -24 -1 -3 -4 -20 -5 -38 -3 -25 0 -32 13 -30 10
2 17 -5 19 -20 3 -17 -2 -22 -17 -22 -29 0 -26 -18 4 -30 14 -5 25 -11 25 -14
0 -4 -25 -57 -52 -109 -6 -12 -4 -22 7 -33 20 -21 5 -49 -29 -52 -14 -1 -29
-2 -33 -3 -27 -5 -31 4 -29 58 1 32 5 64 9 71 5 7 3 12 -4 12 -8 0 -8 5 2 16
15 18 13 75 -3 85 -13 9 -6 52 11 65 10 7 11 13 3 18 -6 3 -13 2 -17 -4 -4 -7
-13 -6 -27 1 -11 6 -18 7 -15 1 8 -12 -9 -402 -18 -424 -7 -17 3 -18 118 -18
l126 0 -12 23 c-9 17 -12 137 -10 461 2 397 4 440 19 457 14 16 32 19 110 19
135 0 139 -7 130 -236 -7 -154 -7 -178 -2 -409 2 -148 -3 -237 -20 -292 -6
-23 -6 -23 120 -23 l126 0 -14 23 c-13 19 -15 132 -15 842 1 647 4 827 14 851
l13 31 -76 7 c-77 6 -97 6 -144 -1z m124 -75 c-7 -7 -12 -8 -12 -4 0 5 -7 3
-15 -4 -21 -17 -19 -4 3 19 10 10 21 14 27 10 5 -6 4 -14 -3 -21z m8 -37 c0
-5 -7 -21 -15 -37 l-14 -28 -9 25 c-6 15 -6 29 0 37 12 14 38 16 38 3z m0 -86
c0 -8 -7 -15 -15 -15 -8 0 -15 7 -15 15 0 8 7 15 15 15 8 0 15 -7 15 -15z
m-25 -35 c3 -5 3 -15 -1 -21 -6 -11 -23 6 -24 24 0 10 18 9 25 -3z m-15 -70
c0 -5 -7 -10 -15 -10 -8 0 -15 5 -15 10 0 6 7 10 15 10 8 0 15 -4 15 -10z m10
-50 c0 -5 -4 -10 -10 -10 -5 0 -10 5 -10 10 0 6 5 10 10 10 6 0 10 -4 10 -10z
m-22 -38 c2 -7 -3 -12 -12 -12 -9 0 -16 7 -16 16 0 17 22 14 28 -4z m62 8 c0
-5 -2 -10 -4 -10 -3 0 -8 5 -11 10 -3 6 -1 10 4 10 6 0 11 -4 11 -10z m-18
-61 c5 -3 9 -26 10 -50 0 -30 6 -51 21 -66 16 -19 17 -23 5 -23 -16 0 -33 -54
-22 -72 11 -17 13 -228 3 -228 -5 0 -9 -9 -9 -19 0 -11 -4 -23 -10 -26 -15 -9
-12 -25 5 -25 11 0 13 -10 10 -46 -3 -25 -8 -51 -12 -57 -13 -22 -11 -52 5
-85 15 -29 15 -34 2 -42 -13 -8 -12 -10 4 -10 12 0 16 -5 12 -16 -17 -45 -18
-64 -2 -70 25 -10 19 -34 -8 -34 -31 0 -42 -16 -19 -28 9 -5 18 -18 19 -28 3
-20 -29 -66 -54 -76 -14 -6 -14 -8 6 -14 12 -3 22 -12 22 -19 0 -7 5 -15 10
-17 6 -2 13 -22 16 -45 4 -36 2 -42 -11 -37 -8 3 -15 1 -15 -4 0 -6 9 -14 20
-17 20 -6 20 -7 -2 -34 -23 -28 -44 -31 -34 -6 3 8 -4 17 -15 20 -17 6 -18 9
-5 26 8 11 11 29 9 40 -5 19 -7 19 -24 3 -18 -16 -19 -15 -28 7 -11 30 -11 29
33 32 41 3 49 19 14 27 -14 4 -23 13 -23 25 0 11 -6 24 -12 28 -7 4 -13 14
-13 21 0 18 38 51 48 41 4 -4 1 -10 -5 -12 -7 -3 -13 -9 -13 -15 0 -6 6 -6 15
2 8 6 19 9 24 6 5 -4 4 6 -3 21 -7 16 -20 44 -29 63 -9 19 -18 34 -21 33 -9
-4 -8 0 3 30 6 16 8 33 5 39 -12 19 -13 77 -2 84 7 4 6 9 -3 15 -10 6 -8 9 8
9 31 0 39 19 14 36 -12 8 -21 24 -21 36 0 17 2 18 15 8 9 -7 19 -10 23 -6 4 4
-2 14 -13 23 -11 8 -19 19 -17 25 2 6 -3 15 -10 19 -10 7 -10 11 0 21 18 18
16 78 -4 78 -10 0 -14 5 -10 15 7 19 -21 54 -51 66 -30 11 -29 37 2 83 14 20
25 43 25 50 0 7 11 29 24 48 14 21 20 41 16 49 -12 22 7 59 30 59 22 0 25 7
10 30 -8 13 -10 12 -10 -3 0 -10 -4 -15 -10 -12 -16 10 -5 48 16 55 13 5 20 2
23 -9 2 -9 8 -19 13 -22z m-472 -54 c0 -8 -7 -15 -15 -15 -8 0 -15 7 -15 15 0
8 7 15 15 15 8 0 15 -7 15 -15z m-2 -1157 c-3 -7 -13 -15 -24 -17 -16 -3 -17
-1 -5 13 16 19 34 21 29 4z"/>
<path d="M2655 720 c-3 -5 -2 -10 4 -10 5 0 13 5 16 10 3 6 2 10 -4 10 -5 0
-13 -4 -16 -10z"/>
<path d="M596 1834 c19 -20 37 -34 40 -31 6 6 -56 66 -68 67 -4 0 8 -16 28
-36z"/>
<path d="M580 1780 c0 -5 5 -10 10 -10 6 0 10 5 10 10 0 6 -4 10 -10 10 -5 0
-10 -4 -10 -10z"/>
<path d="M740 1750 c0 -5 9 -10 21 -10 11 0 17 5 14 10 -3 6 -13 10 -21 10 -8
0 -14 -4 -14 -10z"/>
<path d="M555 1660 c-3 -5 -1 -10 5 -10 6 0 15 -10 19 -22 8 -20 10 -21 16 -6
4 11 1 24 -8 33 -18 18 -24 19 -32 5z"/>
<path d="M880 1340 c0 -5 5 -10 10 -10 6 0 10 5 10 10 0 6 -4 10 -10 10 -5 0
-10 -4 -10 -10z"/>
<path d="M870 1234 c0 -13 18 -39 24 -34 2 3 -2 14 -10 24 -8 11 -14 16 -14
10z"/>
<path d="M961 1224 c0 -11 3 -14 6 -6 3 7 2 16 -1 19 -3 4 -6 -2 -5 -13z"/>
<path d="M916 1217 c3 -10 9 -15 12 -12 3 3 0 11 -7 18 -10 9 -11 8 -5 -6z"/>
<path d="M280 1193 c0 -10 42 -43 55 -43 3 0 5 5 5 10 0 6 -5 10 -12 10 -6 0
-20 7 -30 17 -10 9 -18 11 -18 6z"/>
<path d="M270 1150 c0 -5 5 -10 11 -10 5 0 7 5 4 10 -3 6 -8 10 -11 10 -2 0
-4 -4 -4 -10z"/>
<path d="M130 1113 c0 -5 11 -13 25 -20 29 -13 34 1 6 17 -23 12 -31 13 -31 3z"/>
<path d="M748 1113 c6 -2 18 -2 25 0 6 3 1 5 -13 5 -14 0 -19 -2 -12 -5z"/>
<path d="M680 1100 c-24 -8 -24 -8 7 -9 17 -1 35 4 38 9 7 11 -9 11 -45 0z"/>
<path d="M95 1082 c-5 -4 -16 -15 -24 -24 -11 -15 -11 -18 0 -18 8 0 19 11 26
25 6 14 10 25 10 25 -1 0 -6 -4 -12 -8z"/>
<path d="M608 1083 c7 -3 16 -2 19 1 4 3 -2 6 -13 5 -11 0 -14 -3 -6 -6z"/>
<path d="M800 1050 c0 -12 28 -21 35 -11 2 5 -4 11 -15 14 -11 3 -20 2 -20 -3z"/>
<path d="M315 1039 c-4 -6 -5 -12 -2 -15 2 -3 7 2 10 11 7 17 1 20 -8 4z"/>
<path d="M110 1030 c0 -5 5 -10 10 -10 6 0 10 5 10 10 0 6 -4 10 -10 10 -5 0
-10 -4 -10 -10z"/>
<path d="M155 1029 c-11 -17 1 -21 15 -4 8 9 8 15 2 15 -6 0 -14 -5 -17 -11z"/>
<path d="M273 998 c2 -12 10 -24 17 -26 9 -3 11 1 7 12 -4 10 -7 22 -7 27 0 5
-4 9 -10 9 -5 0 -8 -10 -7 -22z"/>
<path d="M310 969 c0 -5 5 -7 10 -4 6 3 10 8 10 11 0 2 -4 4 -10 4 -5 0 -10
-5 -10 -11z"/>
<path d="M895 920 c-19 -21 -7 -28 13 -8 9 9 12 9 12 0 0 -7 -6 -15 -14 -18
-8 -3 -17 -12 -20 -20 -4 -11 0 -10 19 3 14 11 23 27 22 41 -2 27 -9 28 -32 2z"/>
<path d="M847 736 c-4 -10 -1 -13 9 -9 15 6 19 23 5 23 -5 0 -11 -7 -14 -14z"/>
<path d="M620 480 c0 -5 5 -10 10 -10 6 0 10 5 10 10 0 6 -4 10 -10 10 -5 0
-10 -4 -10 -10z"/>
<path d="M546 465 c-6 -16 28 -39 47 -31 7 2 4 5 -5 5 -11 1 -18 9 -18 21 0
23 -15 27 -24 5z"/>
<path d="M748 413 c-10 -3 -18 -9 -18 -14 0 -14 30 -11 31 4 1 6 5 -4 9 -23
l7 -35 2 32 c1 35 -5 42 -31 36z"/>
<path d="M715 370 c3 -5 10 -10 16 -10 5 0 9 5 9 10 0 6 -7 10 -16 10 -8 0
-12 -4 -9 -10z"/>
<path d="M600 305 c0 -9 6 -12 15 -9 8 4 12 10 9 15 -8 14 -24 10 -24 -6z"/>
<path d="M582 260 c0 -14 2 -19 5 -12 2 6 2 18 0 25 -3 6 -5 1 -5 -13z"/>
<path d="M3008 133 c7 -3 16 -2 19 1 4 3 -2 6 -13 5 -11 0 -14 -3 -6 -6z"/>
</g>
</svg>
